<svg width="32" height="32" viewBox="0 0 32 32" xmlns="http://www.w3.org/2000/svg">
  <g fill="none">
    <circle cx="16" cy="16" r="16" fill="#F3BA2F"/>
    <path d="M12.116 14.404L16 10.52l3.886 3.886.8-.8L16 8.92l-4.686 4.686.8.8z" fill="#FFF"/>
    <path d="M15.2 16.8l-3.886-3.886-.8.8L16 19.2l5.486-5.486-.8-.8L15.2 16.8z" fill="#FFF"/>
    <path d="M12.116 17.596l.8.8L16 21.08l3.084-2.684.8-.8L16 23.08l-3.884-5.484z" fill="#FFF"/>
    <path d="M20.4 14.116L16 18.516l-4.4-4.4L7.084 16 16 24.916 24.916 16l-4.516-1.884z" fill="#FFF"/>
  </g>
</svg>