<svg width="32" height="32" viewBox="0 0 32 32" xmlns="http://www.w3.org/2000/svg">
  <g fill="none">
    <circle cx="16" cy="16" r="16" fill="#2775CA"/>
    <path d="M15.75 27.5c6.213 0 11.25-5.037 11.25-11.25S21.963 4.75 15.75 4.75 4.5 9.787 4.5 16.25s5.037 11.25 11.25 11.25z" fill="#2775CA"/>
    <path d="M15.938 20.313c-2.746 0-4.969-2.223-4.969-4.969s2.223-4.969 4.969-4.969 4.969 2.223 4.969 4.969-2.223 4.969-4.969 4.969zm0-8.876c-2.154 0-3.907 1.753-3.907 3.907s1.753 3.907 3.907 3.907 3.907-1.753 3.907-3.907-1.753-3.907-3.907-3.907z" fill="#FFF"/>
    <path d="M15.938 18.624c-1.307 0-2.375-1.068-2.375-2.375s1.068-2.375 2.375-2.375 2.375 1.068 2.375 2.375-1.068 2.375-2.375 2.375zm0-3.813c-.794 0-1.437.643-1.437 1.437s.643 1.437 1.437 1.437 1.437-.643 1.437-1.437-.643-1.437-1.437-1.437z" fill="#FFF"/>
    <path d="M14.875 16.75h1.125v2.5h-1.125zm-2.938 0h2.032v.5h-2.032zm3.094 0h2.032v.5h-2.032zm-3.094-1.5h5.126v.5h-5.126zm-1.125-.75h7.375v.5h-7.375zm0 3.75h7.375v.5h-7.375z" fill="#FFF"/>
  </g>
</svg>