<svg width="32" height="32" viewBox="0 0 32 32" xmlns="http://www.w3.org/2000/svg">
  <g fill="none">
    <circle cx="16" cy="16" r="16" fill="#26A17B"/>
    <path d="M17.922 17.383v-.002c-.11.008-.677.042-1.942.042-1.01 0-1.721-.03-1.971-.042v.003c-3.888-.171-6.79-.848-6.79-1.658 0-.809 2.902-1.486 6.79-1.66v2.644c.254.018.982.061 1.988.061 1.207 0 1.812-.05 1.925-.06v-2.643c3.88.173 6.775.85 6.775 1.658 0 .81-2.895 1.485-6.775 1.657z" fill="#FFF"/>
    <path d="M15.98 21.475c6.825 0 12.359-1.72 12.359-3.84s-5.534-3.84-12.359-3.84c-6.824 0-12.359 1.72-12.359 3.84s5.535 3.84 12.359 3.84z" fill="#FFF"/>
    <path d="M17.922 16.97v-.01c3.894-.17 6.8-.844 6.8-1.66 0-.809-2.895-1.485-6.775-1.657v-2.644c0-.324-.263-.587-.587-.587h-2.7a.587.587 0 00-.587.587v2.643c-3.888.173-6.79.851-6.79 1.658 0 .814 2.904 1.49 6.79 1.66v3.863c0 .324.263.587.587.587h2.7c.324 0 .587-.263.587-.587V16.97z" fill="#FFF"/>
    <path d="M21.167 9.27H10.833c-.324 0-.587.263-.587.587v6.462c0 .324.263.587.587.587h10.334c.324 0 .587-.263.587-.587V9.857c0-.324-.263-.587-.587-.587z" fill="#26A17B"/>
    <path d="M21.167 9.857v5.462H10.833V9.857h10.334zm-2.34 3.515V11.88h-5.654v1.492h2.09v3.255h1.474v-3.255h2.09z" fill="#FFF"/>
  </g>
</svg>